/vscmnt/brussel_pixiu_data/_data_brussel/112/vsc11236/PredSimResults/SUBJ10opt3D/weighted-trackIG/worker_01.mot
version=1
nRows=11
nColumns=50
inDegrees=yes
endheader
                time	         pelvis_tilt	         pelvis_list	     pelvis_rotation	           pelvis_tx	           pelvis_ty	           pelvis_tz	       hip_flexion_r	     hip_adduction_r	      hip_rotation_r	        knee_angle_r	       ankle_angle_r	         mtp_angle_r	       hip_flexion_l	     hip_adduction_l	      hip_rotation_l	        knee_angle_l	       ankle_angle_l	         mtp_angle_l	    lumbar_extension	      lumbar_bending	     lumbar_rotation	 ercspn_r/activation	 intobl_r/activation	 extobl_r/activation	    abd_r/activation	    add_r/activation	hamstrings_r/activation	bifemsh_r/activation	glut_max_r/activation	iliopsoas_r/activation	rect_fem_r/activation	  vasti_r/activation	gastroc_r/activation	 soleus_r/activation	tib_ant_r/activation	 ercspn_l/activation	 intobl_l/activation	 extobl_l/activation	    abd_l/activation	    add_l/activation	hamstrings_l/activation	bifemsh_l/activation	glut_max_l/activation	iliopsoas_l/activation	rect_fem_l/activation	  vasti_l/activation	gastroc_l/activation	 soleus_l/activation	tib_ant_l/activation	
          1.13045082	         -3.97683651	         -0.88890712	          6.96840707	          1.31132296	          0.82288710	         -0.01271962	         30.52245835	         -1.59209648	         -5.70014373	         -7.87142550	          3.07868566	          0.26543533	        -16.26847135	         -0.82481028	         -0.34464711	         -6.00996823	          8.38954759	         26.51162478	         -6.46546311	         -0.49644337	         -6.69724326	          0.10795555	          0.15713774	          0.01000001	          0.00999999	          0.18449936	          0.11165057	          0.21863708	          0.05168215	          0.09533198	          0.01000004	          0.00999999	          0.01882609	          0.01347765	          0.28806089	          0.09564834	          0.00999999	          0.01000000	          0.05444943	          0.01000002	          0.01202848	          0.21019134	          0.01242283	          0.38513807	          0.01000006	          0.01000000	          0.30671390	          0.25102538	          0.02370435	
          1.14175533	         -4.01136294	         -0.86873718	          7.06826634	          1.32682624	          0.82159525	         -0.01245678	         30.36079094	         -1.47487607	         -5.31601564	         -9.43287817	          2.72257724	          0.25243229	        -16.31608294	         -0.95383002	         -0.65080716	         -7.77887938	          7.70541256	         28.17941803	         -6.24391622	         -0.03013015	         -7.00454595	          0.09084045	          0.13222537	          0.01000000	          0.01298144	          0.15524911	          0.09707847	          0.18397471	          0.09527592	          0.08021819	          0.01000000	          0.00999999	          0.01584144	          0.01134093	          0.36158835	          0.11100629	          0.00999999	          0.01000000	          0.04581710	          0.01188405	          0.01582523	          0.17686793	          0.01045334	          0.32407887	          0.01000000	          0.00999999	          0.26736449	          0.23984469	          0.01994630	
          1.15305984	         -4.03739112	         -0.85997185	          7.12531565	          1.34254245	          0.82060257	         -0.01206745	         30.06439728	         -1.34744336	         -5.00778238	        -10.75174444	          2.24722663	          0.24246501	        -16.22070849	         -1.10484060	         -0.98465143	         -9.81734834	          6.85949481	         29.79381060	         -6.00930890	          0.44623198	         -7.28170005	          0.10611496	          0.11126257	          0.01000000	          0.06140583	          0.16751197	          0.08275094	          0.15480764	          0.11049372	          0.06750052	          0.01000000	          0.01000000	          0.01332996	          0.00999999	          0.41612443	          0.12829105	          0.00999999	          0.01000000	          0.03855333	          0.01000004	          0.01331671	          0.14882756	          0.01000001	          0.27269990	          0.01000003	          0.01000000	          0.22497693	          0.22303727	          0.01678404	
          1.16436435	         -4.05506932	         -0.84702089	          7.14086923	          1.35829349	          0.82001039	         -0.01156273	         29.72973642	         -1.22072033	         -4.80273451	        -12.01686932	          1.78591188	          0.22894751	        -15.93162109	         -1.26142824	         -1.35037730	        -12.18624591	          5.84662247	         31.25685310	         -5.78098265	          0.91474122	         -7.52441839	          0.10814919	          0.09362317	          0.01000000	          0.09853372	          0.21115944	          0.07060756	          0.13026468	          0.11652499	          0.05679909	          0.01000000	          0.01000002	          0.01121665	          0.01000000	          0.44719384	          0.15493256	          0.00999999	          0.01000000	          0.03244114	          0.01000007	          0.01573596	          0.12523267	          0.01000002	          0.22946648	          0.01000001	          0.01000000	          0.18930943	          0.20473416	          0.01412313	
          1.17566886	         -4.06427189	         -0.83253448	          7.11923784	          1.37395524	          0.81987923	         -0.01095482	         29.41427093	         -1.09457713	         -4.68169266	        -13.34082365	          1.46720270	          0.21543039	        -15.41176689	         -1.42921167	         -1.75233698	        -14.92640389	          4.69024639	         32.40964062	         -5.56805146	          1.37635572	         -7.73228205	          0.10759309	          0.07878030	          0.01000000	          0.12612265	          0.24051622	          0.06628042	          0.10961272	          0.11585219	          0.04779425	          0.01000000	          0.03731854	          0.01000000	          0.01000000	          0.45862823	          0.17668892	          0.00999999	          0.01000000	          0.02729797	          0.06161223	          0.02661284	          0.10537848	          0.01000000	          0.19308722	          0.01000000	          0.00999999	          0.15929660	          0.17638079	          0.01188407	
          1.18697336	         -4.06642369	         -0.81511730	          7.06249016	          1.38943243	          0.82028016	         -0.01026735	         29.09743062	         -0.96942764	         -4.62120669	        -14.67673081	          1.34364060	          0.20074733	        -14.62782003	         -1.60872576	         -2.21145964	        -18.06956705	          3.41820734	         33.04232217	         -5.37612279	          1.82870557	         -7.90475237	          0.10237708	          0.06629059	          0.01000000	          0.14118020	          0.26047414	          0.06596286	          0.09223489	          0.10736075	          0.04021702	          0.01000000	          0.07366721	          0.01000000	          0.01000000	          0.45080158	          0.18993812	          0.00999999	          0.01000000	          0.02297019	          0.13002533	          0.03234868	          0.08867194	          0.01000000	          0.16247546	          0.01000000	          0.00999999	          0.13404196	          0.14841765	          0.00999999	
          1.19827787	         -4.06349249	         -0.79012874	          6.97109678	          1.40466364	          0.82125564	         -0.00952655	         28.72101142	         -0.84310415	         -4.59082754	        -15.91837954	          1.45862714	          0.18936059	        -13.55613898	         -1.80224491	         -2.74323612	        -21.63275482	          2.03782419	         32.97518121	         -5.20852004	          2.26697961	         -8.04051704	          0.09673710	          0.05578098	          0.01000000	          0.14748680	          0.26884344	          0.06728271	          0.07761212	          0.09800238	          0.03384108	          0.01000000	          0.09787572	          0.01000000	          0.01000000	          0.41987177	          0.19285354	          0.00999999	          0.01000000	          0.01932853	          0.19091642	          0.03592859	          0.07461404	          0.00999999	          0.13671685	          0.01000000	          0.00999999	          0.11279115	          0.12488774	          0.00999999	
          1.20958238	         -4.05727831	         -0.75208593	          6.84489024	          1.41960973	          0.82278476	         -0.00875649	         28.23733492	         -0.71466219	         -4.55783185	        -16.97466200	          1.81685004	          0.19693588	        -12.19556759	         -2.01382735	         -3.33673454	        -25.56486046	          0.43043234	         32.24116914	         -5.06810098	          2.68640787	         -8.13769481	          0.08319823	          0.04693755	          0.01000000	          0.14838035	          0.26080880	          0.07019585	          0.06530762	          0.08246923	          0.02847597	          0.01000000	          0.12803551	          0.01000000	          0.01000000	          0.36967982	          0.19183727	          0.01000000	          0.01000000	          0.01626422	          0.25402339	          0.04080779	          0.06278486	          0.00999999	          0.11504197	          0.01000000	          0.00999999	          0.09490942	          0.10508823	          0.00999999	
          1.22088689	         -4.04991643	         -0.69305849	          6.68233246	          1.43422974	          0.82482346	         -0.00797735	         27.60271114	         -0.58548546	         -4.48878915	        -17.75008230	          2.36807129	          0.25338581	        -10.56532569	         -2.24171829	         -3.96482659	        -29.76165202	         -1.53024636	         30.90001909	         -4.96020512	          3.07942736	         -8.19485333	          0.07000813	          0.03949614	          0.01000000	          0.14422786	          0.22732344	          0.07292935	          0.05495386	          0.06939470	          0.02396143	          0.01000000	          0.14893030	          0.01000000	          0.01000000	          0.31651245	          0.18404773	          0.01000000	          0.01000000	          0.01368571	          0.29982771	          0.04919858	          0.05283109	          0.00999999	          0.09680340	          0.01000000	          0.00999999	          0.07986262	          0.08842770	          0.00999999	
          1.23219140	         -4.04319646	         -0.60422163	          6.48201739	          1.44848207	          0.82730294	         -0.00720495	         26.80446524	         -0.46400903	         -4.36827253	        -18.19847172	          3.00260181	          0.36039323	         -8.70363547	         -2.47772445	         -4.58193282	        -34.08099529	         -3.93913104	         29.01589798	         -4.89191740	          3.43674978	         -8.20982241	          0.05890915	          0.03323448	          0.01000001	          0.13910716	          0.19128395	          0.07876957	          0.04624156	          0.05839297	          0.02016262	          0.01000000	          0.14697603	          0.01000000	          0.01000000	          0.27067213	          0.18904943	          0.02582312	          0.01000000	          0.01151600	          0.25316701	          0.07928428	          0.05457505	          0.01000001	          0.08145633	          0.01000000	          0.00999999	          0.06720132	          0.07440851	          0.01000003	
          1.24349591	         -4.03715674	         -0.48329718	          6.25115732	          1.46234285	          0.83009123	         -0.00643248	         25.87246404	         -0.36001653	         -4.20297297	        -18.35718002	          3.63112849	          0.50236403	         -6.66417493	         -2.71461498	         -5.13391141	        -38.42296371	         -6.45341999	         26.28299392	         -4.86786607	          3.74756713	         -8.18340185	          0.04956979	          0.02796554	          0.01000000	          0.13693736	          0.16095809	          0.07788587	          0.03891050	          0.05435833	          0.01696607	          0.01000000	          0.15023057	          0.01000000	          0.00999999	          0.24218107	          0.20438144	          0.06007063	          0.01000002	          0.01000001	          0.21303030	          0.06671489	          0.06841550	          0.01188407	          0.06854238	          0.01000000	          0.00999999	          0.05654733	          0.06261190	          0.12510170	
